<svg data-v-423bf9ae="" xmlns="http://www.w3.org/2000/svg" viewBox="0 0 295.82913801787936 60" class="font"><!----><!----><defs data-v-423bf9ae=""><linearGradient data-v-423bf9ae="" gradientTransform="rotate(25)" id="b68e319e-b08d-4837-95b0-ce97b007c91f" x1="0%" y1="0%" x2="100%" y2="0%"><stop data-v-423bf9ae="" offset="0%" style="stop-color: rgb(146, 13, 233); stop-opacity: 1;"></stop><stop data-v-423bf9ae="" offset="100%" style="stop-color: rgb(21, 54, 241); stop-opacity: 1;"></stop></linearGradient></defs><g data-v-423bf9ae="" id="96c8a604-fd49-47b6-b9a9-517dca297496" fill="url(#b68e319e-b08d-4837-95b0-ce97b007c91f)" transform="matrix(4.344677937748613,0,0,4.344677937748613,-1.477193632284525,-13.425053739480774)"><path d="M0.34 9.16C0.34 12.03 2.53 14.20 5.49 14.20C6.93 14.20 8.48 13.48 9.53 12.40L8.08 10.86C7.39 11.56 6.44 12.01 5.61 12.01C4.06 12.01 2.88 10.77 2.88 9.13C2.88 7.52 4.06 6.29 5.61 6.29C6.48 6.29 7.43 6.78 8.08 7.56L9.52 5.85C8.54 4.84 7.03 4.20 5.57 4.20C2.59 4.20 0.34 6.33 0.34 9.16ZM10.72 14.08L13.15 14.08L13.15 10.36C13.15 9.32 13.73 8.57 14.69 8.57C15.51 8.57 16.02 9.11 16.02 10.00L16.02 14.08L18.44 14.08L18.44 9.32C18.44 7.56 17.35 6.43 15.68 6.43C14.56 6.44 13.68 6.89 13.15 7.78L13.15 3.70L10.72 3.70ZM20.09 4.37C20.09 5.12 20.62 5.66 21.36 5.66C22.11 5.66 22.64 5.12 22.64 4.37C22.64 3.63 22.11 3.09 21.36 3.09C20.62 3.09 20.09 3.63 20.09 4.37ZM20.15 14.08L22.55 14.08L22.55 6.54L20.15 6.54ZM24.50 14.08L26.92 14.08L26.92 10.09C27.02 9.20 27.58 8.57 28.46 8.57C29.27 8.57 29.79 9.11 29.79 10.00L29.79 14.08L32.20 14.08L32.20 9.32C32.20 7.56 31.11 6.43 29.44 6.43C28.32 6.44 27.45 6.89 26.92 7.77L26.92 6.54L24.50 6.54ZM33.31 10.02C33.31 12.22 34.65 13.68 36.55 13.68C37.49 13.68 38.23 13.31 38.72 12.67L38.72 13.47C38.72 14.41 38.02 15.02 36.86 15.02C36.05 15.02 35.21 14.74 34.52 14.27L33.68 15.90C34.54 16.48 35.73 16.90 37.04 16.90C39.48 16.90 41.13 15.54 41.13 13.40L41.13 6.54L38.72 6.54L38.72 7.46C38.22 6.80 37.46 6.44 36.50 6.45C34.61 6.45 33.31 7.88 33.31 10.02ZM35.56 10.09C35.56 9.00 36.20 8.25 37.16 8.25C38.09 8.25 38.72 8.99 38.72 10.09C38.72 11.17 38.09 11.93 37.16 11.93C36.20 11.93 35.56 11.17 35.56 10.09ZM42.35 10.30C42.35 12.63 44.00 14.17 46.48 14.17C48.94 14.17 50.60 12.63 50.60 10.30C50.60 7.98 48.94 6.45 46.48 6.45C44.00 6.45 42.35 7.98 42.35 10.30ZM44.79 10.33C44.79 9.17 45.47 8.37 46.48 8.37C47.47 8.37 48.16 9.17 48.16 10.33C48.16 11.51 47.47 12.29 46.48 12.29C45.47 12.29 44.79 11.51 44.79 10.33ZM51.27 10.30C51.27 12.63 52.92 14.17 55.40 14.17C57.86 14.17 59.51 12.63 59.51 10.30C59.51 7.98 57.86 6.45 55.40 6.45C52.92 6.45 51.27 7.98 51.27 10.30ZM53.70 10.33C53.70 9.17 54.39 8.37 55.40 8.37C56.39 8.37 57.08 9.17 57.08 10.33C57.08 11.51 56.39 12.29 55.40 12.29C54.39 12.29 53.70 11.51 53.70 10.33ZM60.19 10.30C60.19 12.63 61.84 14.17 64.32 14.17C66.78 14.17 68.43 12.63 68.43 10.30C68.43 7.98 66.78 6.45 64.32 6.45C61.84 6.45 60.19 7.98 60.19 10.30ZM62.62 10.33C62.62 9.17 63.31 8.37 64.32 8.37C65.31 8.37 66.00 9.17 66.00 10.33C66.00 11.51 65.31 12.29 64.32 12.29C63.31 12.29 62.62 11.51 62.62 10.33Z"></path></g><!----><!----></svg>